# xmcd CD database file
#
# Track frame offsets:
#	150
#	13285
#	28417
#	40342
#	59345
#	71977
#	90212
#	110475
#	124320
#	142932
#	158632
#	169785
#	185100
#	200485
#	218747
#	245797
#	266352
#	283605
#
# Disc length: 4038 seconds
#
# Revision: 3
# Processed by: cddbd v1.5.1PL0 Copyright (c) Steve Scherf et al.
# Submitted via: CDex 1.51
#
DISCID=130fc412
DTITLE=Various Artist - Sentimental Journey
DYEAR=1992
DGENRE=Jazz
TTITLE0=Mel Torme - Take the "A" train
TTITLE1=Ella Fitzgerald - Well be together again
TTITLE2=Gary Crosby - Side by side
TTITLE3=Blossom Dearie - Manhattan
TTITLE4=Sammy Davis jr. and The Count Basie Orchestra - April in Paris
TTITLE5=Oscar Peterson - Autumn in New York
TTITLE6=Billie Holiday - Stars fell on Alabama
TTITLE7=Mel Torme - Moonlight in Vermont
TTITLE8=Sammy Davis jr. and The Count Basie Orchestra - The girl from Ipannema
TTITLE9=Ella Fitzgerald - Satin doll
TTITLE10=Joe Williams and The Count Basie and His Orchestra - Singin' in the rain
TTITLE11=Ella Fitzgerald - Come rain or come shine
TTITLE12=Billie Holiday - gone with the wind
TTITLE13=Fred Astaire - A foggy day
TTITLE14=Billie Holiday - I did't know what time it was
TTITLE15=Ella Fitzgerald - Someone to watch over me
TTITLE16=Anita O'day - Fly me to the moon
TTITLE17=Ella Fitzgerald - Over the rainbow
EXTD=YEAR: 1992
EXTT0=
EXTT1=
EXTT2=
EXTT3=
EXTT4=
EXTT5=
EXTT6=
EXTT7=
EXTT8=
EXTT9=
EXTT10=
EXTT11=
EXTT12=
EXTT13=
EXTT14=
EXTT15=
EXTT16=
EXTT17=
PLAYORDER=
